# xmcd
# Copyright (c) 1998 CDDB Inc.
#
# Track frame offsets:
#	150
#	29027
#	58804
#	90981
#	118658
#	149635
#	178212
#	215489
#
# Disc length: 3318 seconds
#
# Revision: 2
# Processed by: cddbd v1.4b41PL1 Copyright (c) Steve Scherf et al.
# Submitted via: audiograbber 1.70
#
DISCID=7c0cf408
DTITLE=Gramm - personal rock
DYEAR=1900
DGENRE=
TTITLE0=legends/nugroove(tm)
TTITLE1=st.moritz
TTITLE2=type zwei
TTITLE3=non-relations
TTITLE4=ment
TTITLE5=70gr
TTITLE6=type eins
TTITLE7=siemens.bioport
EXTD=
EXTT0=
EXTT1=
EXTT2=
EXTT3=
EXTT4=
EXTT5=
EXTT6=
EXTT7=
PLAYORDER=
